<?xml version="1.0" encoding="utf-8"?>
<svg xmlns="http://www.w3.org/2000/svg" viewBox="0 0 24 24" width="480" height="480">
  <path d="M1.5625 2.375C1.5625 2.375 1.382813 5.730469 1.6875 7.96875C1.835938 9.058594 6.203125 11.472656 8.46875 12.1875L9.71875 12.59375L2.90625 18.46875C2.769531 18.585938 2.792969 18.726563 2.96875 18.78125L4.875 19.375C5.050781 19.429688 5.339844 19.429688 5.5 19.34375L15.15625 14.28125L20.21875 15.875C21.597656 16.308594 23 15.910156 23.21875 15.21875C23.546875 14.171875 21.707031 12.179688 20.34375 11.75L5 6.90625L2.65625 2.71875C1.972656 2.503906 1.5625 2.375 1.5625 2.375 Z M 8.6875 2.53125C8.585938 2.542969 8.53125 2.648438 8.5625 2.78125L9.71875 7.34375L13.8125 8.65625L11.15625 3.5625C11.070313 3.402344 10.863281 3.210938 10.6875 3.15625L8.78125 2.5625C8.738281 2.546875 8.722656 2.527344 8.6875 2.53125 Z M 17 15C16.449219 15 16 15.449219 16 16C16 16.550781 16.449219 17 17 17C17.550781 17 18 16.550781 18 16C18 15.449219 17.550781 15 17 15Z" fill="#FFFFFF" />
</svg>